<svg xmlns="http://www.w3.org/2000/svg" xmlns:xlink="http://www.w3.org/1999/xlink" xmlns:lucid="lucid" width="788.24" height="561.33"><g transform="translate(-189.06172839506172 -118.66666666662786)" lucid:page-tab-id="0_0"><path d="M360 144.67a6 6 0 0 1 6-6h408a6 6 0 0 1 6 6V654a6 6 0 0 1-6 6H366a6 6 0 0 1-6-6z" stroke="#5e5e5e" stroke-width="2" fill-opacity="0"/><use xlink:href="#a" transform="matrix(1,0,0,1,368,146.66666666662786) translate(122.43209876543213 17.777777777777775)"/><use xlink:href="#b" transform="matrix(1,0,0,1,368,146.66666666662786) translate(222.30864197530863 17.777777777777775)"/><path d="M279.75 439.75c0 10.9-8.84 19.75-19.75 19.75-10.9 0-19.75-8.84-19.75-19.75 0-10.9 8.84-19.75 19.75-19.75 10.9 0 19.75 8.84 19.75 19.75z" stroke="#5e5e5e" stroke-width="2" fill="#6db1ff"/><path d="M260 459.5v49.3a20.7 20.7 0 0 0 3.2 11.07L300 578m-40-63.2L220 578m0-98.75h80" stroke="#5e5e5e" stroke-width="2" fill="none"/><path d="M220 426a6 6 0 0 1 6-6h68a6 6 0 0 1 6 6v168a6 6 0 0 1-6 6h-68a6 6 0 0 1-6-6z" fill="none"/><use xlink:href="#c" transform="matrix(1,0,0,1,140,578) translate(70.06172839506173 17.777777777777775)"/><use xlink:href="#d" transform="matrix(1,0,0,1,140,578) translate(70.67901234567903 44.44444444444444)"/><path d="M899.75 199.97c0 10.9-8.84 19.75-19.75 19.75-10.9 0-19.75-8.84-19.75-19.75 0-10.9 8.84-19.75 19.75-19.75 10.9 0 19.75 8.84 19.75 19.75z" stroke="#5e5e5e" stroke-width="2" fill="#54c45e"/><path d="M880 219.72v49.3a20.7 20.7 0 0 0 3.2 11.07L920 338.2m-40-63.2l-40 63.2m0-98.75h80" stroke="#5e5e5e" stroke-width="2" fill="none"/><path d="M840 186.22a6 6 0 0 1 6-6h68a6 6 0 0 1 6 6v168a6 6 0 0 1-6 6h-68a6 6 0 0 1-6-6z" fill="none"/><use xlink:href="#e" transform="matrix(1,0,0,1,760,338.2222222222222) translate(44.166666666666686 17.777777777777775)"/><use xlink:href="#f" transform="matrix(1,0,0,1,760,338.2222222222222) translate(113.30246913580247 17.777777777777775)"/><path d="M742 260c0 33.14-35.82 60-80 60s-80-26.86-80-60 35.82-60 80-60 80 26.86 80 60z" stroke="#5e5e5e" stroke-width="2" fill="#fff"/><use xlink:href="#g" transform="matrix(1,0,0,1,582.0000000000001,200) translate(46.4006790123457 36.70555555555555)"/><use xlink:href="#h" transform="matrix(1,0,0,1,582.0000000000001,200) translate(38.32691358024694 63.63888888888886)"/><use xlink:href="#i" transform="matrix(1,0,0,1,582.0000000000001,200) translate(48.208703703703726 90.57222222222218)"/><path d="M878 260H744M877.97 260H882" stroke="#5e5e5e" stroke-width="2" fill="none"/><path d="M744.03 261h-1.06l.03-1v-.4l-.02-.6h1.05z" stroke="#5e5e5e" stroke-width=".05" fill="#5e5e5e"/><path d="M560 460c0 33.14-35.82 60-80 60s-80-26.86-80-60 35.82-60 80-60 80 26.86 80 60z" stroke="#5e5e5e" stroke-width="2" fill="#fff"/><use xlink:href="#j" transform="matrix(1,0,0,1,400,400) translate(46.4006790123457 36.70555555555555)"/><use xlink:href="#k" transform="matrix(1,0,0,1,400,400) translate(32.68462962962965 63.63888888888887)"/><use xlink:href="#l" transform="matrix(1,0,0,1,400,400) translate(48.20870370370371 90.5722222222222)"/><path d="M261.95 502.12l136.4-46.83M261.97 502.1l-3.8 1.32" stroke="#5e5e5e" stroke-width="2" fill="none"/><path d="M399.36 454.17l-.17 1.9-.56.18-.65-1.9 1.4-.48zM481 398h-2v-10.67h2zm14.44-37h-9.4l-.82.06-.76.2-.73.3-.67.4-.6.5-.5.6-.4.67-.3.73-.2.76-.06.82v10.63h-2v-10.7l.08-1.07.26-1.06.42-1.02.57-.94.72-.83.83-.72.94-.57 1.02-.42 1.06-.26 1.06-.08h9.48zM663 354.04l-.08 1.06-.26 1.06-.42 1.02-.57.94-.72.83-.83.72-.94.57-1.02.42-1.06.26-1.06.08h-9.48v-2h9.4l.82-.06.76-.2.73-.3.67-.4.6-.5.5-.6.4-.67.3-.73.2-.76.06-.82V339.5h2zM509.36 361h-4.47v-2h4.46zm127.75 0h-4.46v-2h4.47z" stroke="#5e5e5e" stroke-width=".05" fill="#5e5e5e"/><path d="M666.63 338.5h-9.26l4.63-14.26z" fill="#5e5e5e"/><path d="M668 339.5h-12l6-18.5zm-9.26-2h6.52L662 327.47z" stroke="#5e5e5e" stroke-width=".05" fill="#5e5e5e"/><path d="M481 399.03l-1-.03h-.92l-.08-1.03h2z" fill="#5e5e5e"/><path d="M481.02 399.06l-1-.04h-.97l-.08-1.07h2.05zm-2-1.06l.08.98h.9l.98.02v-1z" stroke="#5e5e5e" stroke-width=".05" fill="#5e5e5e"/><use xlink:href="#m" transform="matrix(1,0,0,1,509.3641975308642,346.6666666666667) translate(0.005000000000002558 17.777777777777775)"/><path d="M742 560c0 33.14-35.82 60-80 60s-80-26.86-80-60 35.82-60 80-60 80 26.86 80 60z" stroke="#5e5e5e" stroke-width="2" fill="#fff"/><use xlink:href="#j" transform="matrix(1,0,0,1,582.0000000000001,500) translate(46.4006790123457 36.70555555555555)"/><use xlink:href="#k" transform="matrix(1,0,0,1,582.0000000000001,500) translate(32.68462962962965 63.63888888888887)"/><use xlink:href="#n" transform="matrix(1,0,0,1,582.0000000000001,500) translate(51.325987654321 90.5722222222222)"/><path d="M261.98 502.62l318.04 57.2M262 502.63l-3.95-.72" stroke="#5e5e5e" stroke-width="2" fill="none"/><path d="M581.03 559l-.03 1v.4l.03.62-1.22-.22.37-1.97zM663 498h-2v-10.57h2zm0-21.13h-2v-21.14h2zm0-31.7h-2V441h2zm0-31.7h-2v-21.14h2zm0-31.7h-2v-21.13h2zm0-31.7h-2V339.5h2z" stroke="#5e5e5e" stroke-width=".05" fill="#5e5e5e"/><path d="M666.63 338.5h-9.26l4.63-14.26z" fill="#5e5e5e"/><path d="M668 339.5h-12l6-18.5zm-9.26-2h6.52L662 327.47z" stroke="#5e5e5e" stroke-width=".05" fill="#5e5e5e"/><path d="M663 499.03l-1-.03h-.92l-.08-1.03h2z" fill="#5e5e5e"/><path d="M663.02 499.06l-1-.04h-.97l-.08-1.07h2.05zm-2-1.06l.08.98h.9l.98.02v-1z" stroke="#5e5e5e" stroke-width=".05" fill="#5e5e5e"/><g><use xlink:href="#m" transform="matrix(1,0,0,1,600.3641975308643,414.33534461989603) translate(0.005000000000002558 17.777777777777775)"/></g><defs><path fill="#333" d="M185-189c-5-48-123-54-124 2 14 75 158 14 163 119 3 78-121 87-175 55-17-10-28-26-33-46l33-7c5 56 141 63 141-1 0-78-155-14-162-118-5-82 145-84 179-34 5 7 8 16 11 25" id="o"/><path fill="#333" d="M106-169C34-169 62-67 57 0H25v-261h32l-1 103c12-21 28-36 61-36 89 0 53 116 60 194h-32v-121c2-32-8-49-39-48" id="p"/><path fill="#333" d="M24-231v-30h32v30H24zM24 0v-190h32V0H24" id="q"/><path fill="#333" d="M115-194c55 1 70 41 70 98S169 2 115 4C84 4 66-9 55-30l1 105H24l-1-265h31l2 30c10-21 28-34 59-34zm-8 174c40 0 45-34 45-75s-6-73-45-74c-42 0-51 32-51 76 0 43 10 73 51 73" id="r"/><path fill="#333" d="M210-169c-67 3-38 105-44 169h-31v-121c0-29-5-50-35-48C34-165 62-65 56 0H25l-1-190h30c1 10-1 24 2 32 10-44 99-50 107 0 11-21 27-35 58-36 85-2 47 119 55 194h-31v-121c0-29-5-49-35-48" id="s"/><path fill="#333" d="M100-194c63 0 86 42 84 106H49c0 40 14 67 53 68 26 1 43-12 49-29l28 8c-11 28-37 45-77 45C44 4 14-33 15-96c1-61 26-98 85-98zm52 81c6-60-76-77-97-28-3 7-6 17-6 28h103" id="t"/><path fill="#333" d="M117-194c89-4 53 116 60 194h-32v-121c0-31-8-49-39-48C34-167 62-67 57 0H25l-1-190h30c1 10-1 24 2 32 11-22 29-35 61-36" id="u"/><path fill="#333" d="M59-47c-2 24 18 29 38 22v24C64 9 27 4 27-40v-127H5v-23h24l9-43h21v43h35v23H59v120" id="v"/><g id="a"><use transform="matrix(0.061728395061728385,0,0,0.061728395061728385,0,0)" xlink:href="#o"/><use transform="matrix(0.061728395061728385,0,0,0.061728395061728385,14.814814814814813,0)" xlink:href="#p"/><use transform="matrix(0.061728395061728385,0,0,0.061728395061728385,27.16049382716049,0)" xlink:href="#q"/><use transform="matrix(0.061728395061728385,0,0,0.061728395061728385,32.03703703703703,0)" xlink:href="#r"/><use transform="matrix(0.061728395061728385,0,0,0.061728395061728385,44.38271604938271,0)" xlink:href="#s"/><use transform="matrix(0.061728395061728385,0,0,0.061728395061728385,62.83950617283949,0)" xlink:href="#t"/><use transform="matrix(0.061728395061728385,0,0,0.061728395061728385,75.18518518518516,0)" xlink:href="#u"/><use transform="matrix(0.061728395061728385,0,0,0.061728395061728385,87.53086419753083,0)" xlink:href="#v"/></g><path fill="#333" d="M135-143c-3-34-86-38-87 0 15 53 115 12 119 90S17 21 10-45l28-5c4 36 97 45 98 0-10-56-113-15-118-90-4-57 82-63 122-42 12 7 21 19 24 35" id="w"/><path fill="#333" d="M141-36C126-15 110 5 73 4 37 3 15-17 15-53c-1-64 63-63 125-63 3-35-9-54-41-54-24 1-41 7-42 31l-33-3c5-37 33-52 76-52 45 0 72 20 72 64v82c-1 20 7 32 28 27v20c-31 9-61-2-59-35zM48-53c0 20 12 33 32 33 41-3 63-29 60-74-43 2-92-5-92 41" id="x"/><path fill="#333" d="M84 4C-5 8 30-112 23-190h32v120c0 31 7 50 39 49 72-2 45-101 50-169h31l1 190h-30c-1-10 1-25-2-33-11 22-28 36-60 37" id="y"/><g id="b"><use transform="matrix(0.061728395061728385,0,0,0.061728395061728385,0,0)" xlink:href="#w"/><use transform="matrix(0.061728395061728385,0,0,0.061728395061728385,11.111111111111109,0)" xlink:href="#v"/><use transform="matrix(0.061728395061728385,0,0,0.061728395061728385,17.28395061728395,0)" xlink:href="#x"/><use transform="matrix(0.061728395061728385,0,0,0.061728395061728385,29.629629629629626,0)" xlink:href="#v"/><use transform="matrix(0.061728395061728385,0,0,0.061728395061728385,35.80246913580247,0)" xlink:href="#y"/><use transform="matrix(0.061728395061728385,0,0,0.061728395061728385,48.148148148148145,0)" xlink:href="#w"/></g><path fill="#333" d="M212-179c-10-28-35-45-73-45-59 0-87 40-87 99 0 60 29 101 89 101 43 0 62-24 78-52l27 14C228-24 195 4 139 4 59 4 22-46 18-125c-6-104 99-153 187-111 19 9 31 26 39 46" id="z"/><path fill="#333" d="M114-163C36-179 61-72 57 0H25l-1-190h30c1 12-1 29 2 39 6-27 23-49 58-41v29" id="A"/><path fill="#333" d="M177-190C167-65 218 103 67 71c-23-6-38-20-44-43l32-5c15 47 100 32 89-28v-30C133-14 115 1 83 1 29 1 15-40 15-95c0-56 16-97 71-98 29-1 48 16 59 35 1-10 0-23 2-32h30zM94-22c36 0 50-32 50-73 0-42-14-75-50-75-39 0-46 34-46 75s6 73 46 73" id="B"/><path fill="#333" d="M100-194c62-1 85 37 85 99 1 63-27 99-86 99S16-35 15-95c0-66 28-99 85-99zM99-20c44 1 53-31 53-75 0-43-8-75-51-75s-53 32-53 75 10 74 51 75" id="C"/><path fill="#333" d="M101-234c-31-9-42 10-38 44h38v23H63V0H32v-167H5v-23h27c-7-52 17-82 69-68v24" id="D"/><g id="c"><use transform="matrix(0.061728395061728385,0,0,0.061728395061728385,0,0)" xlink:href="#z"/><use transform="matrix(0.061728395061728385,0,0,0.061728395061728385,15.987654320987652,0)" xlink:href="#x"/><use transform="matrix(0.061728395061728385,0,0,0.061728395061728385,28.33333333333333,0)" xlink:href="#A"/><use transform="matrix(0.061728395061728385,0,0,0.061728395061728385,35.679012345679006,0)" xlink:href="#B"/><use transform="matrix(0.061728395061728385,0,0,0.061728395061728385,48.02469135802468,0)" xlink:href="#C"/><use transform="matrix(0.061728395061728385,0,0,0.061728395061728385,60.37037037037036,0)" xlink:href="#o"/><use transform="matrix(0.061728395061728385,0,0,0.061728395061728385,75.18518518518518,0)" xlink:href="#C"/><use transform="matrix(0.061728395061728385,0,0,0.061728395061728385,87.53086419753086,0)" xlink:href="#D"/><use transform="matrix(0.061728395061728385,0,0,0.061728395061728385,93.7037037037037,0)" xlink:href="#v"/></g><path fill="#333" d="M30 0v-248h187v28H63v79h144v27H63v87h162V0H30" id="E"/><path fill="#333" d="M24 0v-261h32V0H24" id="F"/><path fill="#333" d="M179-190L93 31C79 59 56 82 12 73V49c39 6 53-20 64-50L1-190h34L92-34l54-156h33" id="G"/><g id="d"><use transform="matrix(0.061728395061728385,0,0,0.061728395061728385,0,0)" xlink:href="#E"/><use transform="matrix(0.061728395061728385,0,0,0.061728395061728385,14.814814814814813,0)" xlink:href="#s"/><use transform="matrix(0.061728395061728385,0,0,0.061728395061728385,33.2716049382716,0)" xlink:href="#r"/><use transform="matrix(0.061728395061728385,0,0,0.061728395061728385,45.61728395061728,0)" xlink:href="#F"/><use transform="matrix(0.061728395061728385,0,0,0.061728395061728385,50.49382716049382,0)" xlink:href="#C"/><use transform="matrix(0.061728395061728385,0,0,0.061728395061728385,62.8395061728395,0)" xlink:href="#G"/><use transform="matrix(0.061728395061728385,0,0,0.061728395061728385,73.9506172839506,0)" xlink:href="#t"/><use transform="matrix(0.061728395061728385,0,0,0.061728395061728385,86.29629629629628,0)" xlink:href="#t"/></g><g id="e"><use transform="matrix(0.061728395061728385,0,0,0.061728395061728385,0,0)" xlink:href="#o"/><use transform="matrix(0.061728395061728385,0,0,0.061728395061728385,14.814814814814813,0)" xlink:href="#v"/><use transform="matrix(0.061728395061728385,0,0,0.061728395061728385,20.98765432098765,0)" xlink:href="#x"/><use transform="matrix(0.061728395061728385,0,0,0.061728395061728385,33.33333333333333,0)" xlink:href="#v"/><use transform="matrix(0.061728395061728385,0,0,0.061728395061728385,39.50617283950616,0)" xlink:href="#y"/><use transform="matrix(0.061728395061728385,0,0,0.061728395061728385,51.85185185185184,0)" xlink:href="#w"/></g><path fill="#333" d="M30-248c87 1 191-15 191 75 0 78-77 80-158 76V0H30v-248zm33 125c57 0 124 11 124-50 0-59-68-47-124-48v98" id="H"/><path fill="#333" d="M108 0H70L1-190h34L89-25l56-165h34" id="I"/><path fill="#333" d="M85-194c31 0 48 13 60 33l-1-100h32l1 261h-30c-2-10 0-23-3-31C134-8 116 4 85 4 32 4 16-35 15-94c0-66 23-100 70-100zm9 24c-40 0-46 34-46 75 0 40 6 74 45 74 42 0 51-32 51-76 0-42-9-74-50-73" id="J"/><g id="f"><use transform="matrix(0.061728395061728385,0,0,0.061728395061728385,0,0)" xlink:href="#H"/><use transform="matrix(0.061728395061728385,0,0,0.061728395061728385,14.814814814814813,0)" xlink:href="#A"/><use transform="matrix(0.061728395061728385,0,0,0.061728395061728385,22.16049382716049,0)" xlink:href="#C"/><use transform="matrix(0.061728395061728385,0,0,0.061728395061728385,34.50617283950616,0)" xlink:href="#I"/><use transform="matrix(0.061728395061728385,0,0,0.061728395061728385,45.61728395061727,0)" xlink:href="#q"/><use transform="matrix(0.061728395061728385,0,0,0.061728395061728385,50.493827160493815,0)" xlink:href="#J"/><use transform="matrix(0.061728395061728385,0,0,0.061728395061728385,62.83950617283949,0)" xlink:href="#t"/><use transform="matrix(0.061728395061728385,0,0,0.061728395061728385,75.18518518518516,0)" xlink:href="#A"/></g><path d="M212-179c-10-28-35-45-73-45-59 0-87 40-87 99 0 60 29 101 89 101 43 0 62-24 78-52l27 14C228-24 195 4 139 4 59 4 22-46 18-125c-6-104 99-153 187-111 19 9 31 26 39 46" id="K"/><path d="M114-163C36-179 61-72 57 0H25l-1-190h30c1 12-1 29 2 39 6-27 23-49 58-41v29" id="L"/><path d="M100-194c63 0 86 42 84 106H49c0 40 14 67 53 68 26 1 43-12 49-29l28 8c-11 28-37 45-77 45C44 4 14-33 15-96c1-61 26-98 85-98zm52 81c6-60-76-77-97-28-3 7-6 17-6 28h103" id="M"/><path d="M141-36C126-15 110 5 73 4 37 3 15-17 15-53c-1-64 63-63 125-63 3-35-9-54-41-54-24 1-41 7-42 31l-33-3c5-37 33-52 76-52 45 0 72 20 72 64v82c-1 20 7 32 28 27v20c-31 9-61-2-59-35zM48-53c0 20 12 33 32 33 41-3 63-29 60-74-43 2-92-5-92 41" id="N"/><path d="M59-47c-2 24 18 29 38 22v24C64 9 27 4 27-40v-127H5v-23h24l9-43h21v43h35v23H59v120" id="O"/><g id="g"><use transform="matrix(0.062345679012345646,0,0,0.062345679012345646,0,0)" xlink:href="#K"/><use transform="matrix(0.062345679012345646,0,0,0.062345679012345646,16.147530864197524,0)" xlink:href="#L"/><use transform="matrix(0.062345679012345646,0,0,0.062345679012345646,23.566666666666656,0)" xlink:href="#M"/><use transform="matrix(0.062345679012345646,0,0,0.062345679012345646,36.03580246913579,0)" xlink:href="#N"/><use transform="matrix(0.062345679012345646,0,0,0.062345679012345646,48.504938271604914,0)" xlink:href="#O"/><use transform="matrix(0.062345679012345646,0,0,0.062345679012345646,54.73950617283948,0)" xlink:href="#M"/></g><path d="M30-248c87 1 191-15 191 75 0 78-77 80-158 76V0H30v-248zm33 125c57 0 124 11 124-50 0-59-68-47-124-48v98" id="P"/><path d="M100-194c62-1 85 37 85 99 1 63-27 99-86 99S16-35 15-95c0-66 28-99 85-99zM99-20c44 1 53-31 53-75 0-43-8-75-51-75s-53 32-53 75 10 74 51 75" id="Q"/><path d="M108 0H70L1-190h34L89-25l56-165h34" id="R"/><path d="M24-231v-30h32v30H24zM24 0v-190h32V0H24" id="S"/><path d="M85-194c31 0 48 13 60 33l-1-100h32l1 261h-30c-2-10 0-23-3-31C134-8 116 4 85 4 32 4 16-35 15-94c0-66 23-100 70-100zm9 24c-40 0-46 34-46 75 0 40 6 74 45 74 42 0 51-32 51-76 0-42-9-74-50-73" id="T"/><g id="h"><use transform="matrix(0.062345679012345646,0,0,0.062345679012345646,0,0)" xlink:href="#P"/><use transform="matrix(0.062345679012345646,0,0,0.062345679012345646,14.962962962962955,0)" xlink:href="#L"/><use transform="matrix(0.062345679012345646,0,0,0.062345679012345646,22.382098765432087,0)" xlink:href="#Q"/><use transform="matrix(0.062345679012345646,0,0,0.062345679012345646,34.851234567901216,0)" xlink:href="#R"/><use transform="matrix(0.062345679012345646,0,0,0.062345679012345646,46.07345679012343,0)" xlink:href="#S"/><use transform="matrix(0.062345679012345646,0,0,0.062345679012345646,50.998765432098736,0)" xlink:href="#T"/><use transform="matrix(0.062345679012345646,0,0,0.062345679012345646,63.46790123456786,0)" xlink:href="#M"/><use transform="matrix(0.062345679012345646,0,0,0.062345679012345646,75.93703703703699,0)" xlink:href="#L"/></g><path d="M185-189c-5-48-123-54-124 2 14 75 158 14 163 119 3 78-121 87-175 55-17-10-28-26-33-46l33-7c5 56 141 63 141-1 0-78-155-14-162-118-5-82 145-84 179-34 5 7 8 16 11 25" id="U"/><path d="M84 4C-5 8 30-112 23-190h32v120c0 31 7 50 39 49 72-2 45-101 50-169h31l1 190h-30c-1-10 1-25-2-33-11 22-28 36-60 37" id="V"/><path d="M135-143c-3-34-86-38-87 0 15 53 115 12 119 90S17 21 10-45l28-5c4 36 97 45 98 0-10-56-113-15-118-90-4-57 82-63 122-42 12 7 21 19 24 35" id="W"/><g id="i"><use transform="matrix(0.062345679012345646,0,0,0.062345679012345646,0,0)" xlink:href="#U"/><use transform="matrix(0.062345679012345646,0,0,0.062345679012345646,14.962962962962955,0)" xlink:href="#O"/><use transform="matrix(0.062345679012345646,0,0,0.062345679012345646,21.197530864197518,0)" xlink:href="#N"/><use transform="matrix(0.062345679012345646,0,0,0.062345679012345646,33.66666666666664,0)" xlink:href="#O"/><use transform="matrix(0.062345679012345646,0,0,0.062345679012345646,39.901234567901206,0)" xlink:href="#V"/><use transform="matrix(0.062345679012345646,0,0,0.062345679012345646,52.37037037037034,0)" xlink:href="#W"/></g><g id="j"><use transform="matrix(0.06234567901234565,0,0,0.06234567901234565,0,0)" xlink:href="#K"/><use transform="matrix(0.06234567901234565,0,0,0.06234567901234565,16.147530864197524,0)" xlink:href="#L"/><use transform="matrix(0.06234567901234565,0,0,0.06234567901234565,23.566666666666656,0)" xlink:href="#M"/><use transform="matrix(0.06234567901234565,0,0,0.06234567901234565,36.03580246913579,0)" xlink:href="#N"/><use transform="matrix(0.06234567901234565,0,0,0.06234567901234565,48.50493827160492,0)" xlink:href="#O"/><use transform="matrix(0.06234567901234565,0,0,0.06234567901234565,54.739506172839484,0)" xlink:href="#M"/></g><path d="M106-169C34-169 62-67 57 0H25v-261h32l-1 103c12-21 28-36 61-36 89 0 53 116 60 194h-32v-121c2-32-8-49-39-48" id="X"/><path d="M115-194c55 1 70 41 70 98S169 2 115 4C84 4 66-9 55-30l1 105H24l-1-265h31l2 30c10-21 28-34 59-34zm-8 174c40 0 45-34 45-75s-6-73-45-74c-42 0-51 32-51 76 0 43 10 73 51 73" id="Y"/><path d="M210-169c-67 3-38 105-44 169h-31v-121c0-29-5-50-35-48C34-165 62-65 56 0H25l-1-190h30c1 10-1 24 2 32 10-44 99-50 107 0 11-21 27-35 58-36 85-2 47 119 55 194h-31v-121c0-29-5-49-35-48" id="Z"/><path d="M117-194c89-4 53 116 60 194h-32v-121c0-31-8-49-39-48C34-167 62-67 57 0H25l-1-190h30c1 10-1 24 2 32 11-22 29-35 61-36" id="aa"/><g id="k"><use transform="matrix(0.06234567901234565,0,0,0.06234567901234565,0,0)" xlink:href="#U"/><use transform="matrix(0.06234567901234565,0,0,0.06234567901234565,14.962962962962957,0)" xlink:href="#X"/><use transform="matrix(0.06234567901234565,0,0,0.06234567901234565,27.432098765432087,0)" xlink:href="#S"/><use transform="matrix(0.06234567901234565,0,0,0.06234567901234565,32.35740740740739,0)" xlink:href="#Y"/><use transform="matrix(0.06234567901234565,0,0,0.06234567901234565,44.826543209876526,0)" xlink:href="#Z"/><use transform="matrix(0.06234567901234565,0,0,0.06234567901234565,63.467901234567876,0)" xlink:href="#M"/><use transform="matrix(0.06234567901234565,0,0,0.06234567901234565,75.937037037037,0)" xlink:href="#aa"/><use transform="matrix(0.06234567901234565,0,0,0.06234567901234565,88.40617283950613,0)" xlink:href="#O"/></g><g id="l"><use transform="matrix(0.06234567901234565,0,0,0.06234567901234565,0,0)" xlink:href="#U"/><use transform="matrix(0.06234567901234565,0,0,0.06234567901234565,14.962962962962957,0)" xlink:href="#O"/><use transform="matrix(0.06234567901234565,0,0,0.06234567901234565,21.19753086419752,0)" xlink:href="#N"/><use transform="matrix(0.06234567901234565,0,0,0.06234567901234565,33.66666666666665,0)" xlink:href="#O"/><use transform="matrix(0.06234567901234565,0,0,0.06234567901234565,39.90123456790121,0)" xlink:href="#V"/><use transform="matrix(0.06234567901234565,0,0,0.06234567901234565,52.370370370370345,0)" xlink:href="#W"/></g><path fill="#333" d="M15-91v-56l181-69v40L49-119l147 57v40" id="ab"/><path fill="#333" d="M185-48c-13 30-37 53-82 52C43 2 14-33 14-96s30-98 90-98c62 0 83 45 84 108H66c0 31 8 55 39 56 18 0 30-7 34-22zm-45-69c5-46-57-63-70-21-2 6-4 13-4 21h74" id="ac"/><path fill="#333" d="M144 0l-44-69L55 0H2l70-98-66-92h53l41 62 40-62h54l-67 91 71 99h-54" id="ad"/><path fill="#333" d="M115-3C79 11 28 4 28-45v-112H4v-33h27l15-45h31v45h36v33H77v99c-1 23 16 31 38 25v30" id="ae"/><path fill="#333" d="M135-194c87-1 58 113 63 194h-50c-7-57 23-157-34-157-59 0-34 97-39 157H25l-1-190h47c2 12-1 28 3 38 12-26 28-41 61-42" id="af"/><path fill="#333" d="M88-194c31-1 46 15 58 34l-1-101h50l1 261h-48c-2-10 0-23-3-31C134-8 116 4 84 4 32 4 16-41 15-95c0-56 19-97 73-99zm17 164c33 0 40-30 41-66 1-37-9-64-41-64s-38 30-39 65c0 43 13 65 39 65" id="ag"/><path fill="#333" d="M15-22v-40l146-57-146-57v-40l181 69v56" id="ah"/><g id="m"><use transform="matrix(0.061728395061728385,0,0,0.061728395061728385,0,0)" xlink:href="#ab"/><use transform="matrix(0.061728395061728385,0,0,0.061728395061728385,12.96296296296296,0)" xlink:href="#ab"/><use transform="matrix(0.061728395061728385,0,0,0.061728395061728385,25.92592592592592,0)" xlink:href="#ac"/><use transform="matrix(0.061728395061728385,0,0,0.061728395061728385,38.271604938271594,0)" xlink:href="#ad"/><use transform="matrix(0.061728395061728385,0,0,0.061728395061728385,50.61728395061727,0)" xlink:href="#ae"/><use transform="matrix(0.061728395061728385,0,0,0.061728395061728385,57.96296296296295,0)" xlink:href="#ac"/><use transform="matrix(0.061728395061728385,0,0,0.061728395061728385,70.30864197530863,0)" xlink:href="#af"/><use transform="matrix(0.061728395061728385,0,0,0.061728395061728385,83.82716049382715,0)" xlink:href="#ag"/><use transform="matrix(0.061728395061728385,0,0,0.061728395061728385,97.34567901234567,0)" xlink:href="#ah"/><use transform="matrix(0.061728395061728385,0,0,0.061728395061728385,110.30864197530863,0)" xlink:href="#ah"/></g><path d="M30 0v-248h187v28H63v79h144v27H63v87h162V0H30" id="ai"/><g id="n"><use transform="matrix(0.06234567901234565,0,0,0.06234567901234565,0,0)" xlink:href="#ai"/><use transform="matrix(0.06234567901234565,0,0,0.06234567901234565,14.962962962962957,0)" xlink:href="#R"/><use transform="matrix(0.06234567901234565,0,0,0.06234567901234565,26.185185185185176,0)" xlink:href="#M"/><use transform="matrix(0.06234567901234565,0,0,0.06234567901234565,38.65432098765431,0)" xlink:href="#aa"/><use transform="matrix(0.06234567901234565,0,0,0.06234567901234565,51.12345679012344,0)" xlink:href="#O"/></g></defs></g></svg>