<svg xmlns="http://www.w3.org/2000/svg" xmlns:xlink="http://www.w3.org/1999/xlink" xmlns:lucid="lucid" width="840" height="720"><g transform="translate(-280 -20)" lucid:page-tab-id="0_0"><path d="M300 46a6 6 0 0 1 6-6h513a6 6 0 0 1 6 6v8a14.48 14.48 0 0 1-4.24 10.24l-1.52 1.52A14.48 14.48 0 0 1 809 70H306a6 6 0 0 1-6-6z" fill="#fff"/><path d="M825 40v20l-10 10H300" stroke="#5e5e5e" stroke-width="2" fill="none"/><path d="M300 46a6 6 0 0 1 6-6h788a6 6 0 0 1 6 6v668a6 6 0 0 1-6 6H306a6 6 0 0 1-6-6z" stroke="#5e5e5e" stroke-width="2" fill="none"/><use xlink:href="#a" transform="matrix(1,0,0,1,308,40) translate(6.802469135802511 19.444444444444443)"/><use xlink:href="#b" transform="matrix(1,0,0,1,308,40) translate(85.81481481481485 19.444444444444443)"/><use xlink:href="#c" transform="matrix(1,0,0,1,308,40) translate(181.98765432098767 19.444444444444443)"/><use xlink:href="#d" transform="matrix(1,0,0,1,308,40) translate(253.5925925925926 19.444444444444443)"/><use xlink:href="#e" transform="matrix(1,0,0,1,308,40) translate(291.679012345679 19.444444444444443)"/><use xlink:href="#f" transform="matrix(1,0,0,1,308,40) translate(304.0246913580247 19.444444444444443)"/><path d="M520 222v9.94m0 9.94v19.87m0 9.94v19.86m0 9.94v19.88m0 9.93v19.9m0 9.93V381m0 9.94v19.87m0 9.95v19.88m0 9.93v19.88m0 9.94v19.87m0 9.94v19.86m0 9.94v19.88m0 9.93v19.9m0 9.92v19.88m0 9.94v19.87m0 9.95v19.88m0 9.93V699" stroke="#5e5e5e" stroke-width="2" fill="none"/><path d="M521 222.03h-2V221h2z" stroke="#5e5e5e" stroke-width=".05" fill="#5e5e5e"/><path d="M520 698.97V700" stroke="#5e5e5e" stroke-width="2" fill="none"/><path d="M500 266a6 6 0 0 1 6-6h28a6 6 0 0 1 6 6v388a6 6 0 0 1-6 6h-28a6 6 0 0 1-6-6z" stroke="#5e5e5e" stroke-width="2" fill="#fff"/><path d="M440 106a6 6 0 0 1 6-6h148a6 6 0 0 1 6 6v108a6 6 0 0 1-6 6H446a6 6 0 0 1-6-6z" stroke="#5e5e5e" stroke-width="2" fill="#fc9432"/><use xlink:href="#g" transform="matrix(1,0,0,1,440,100) translate(45.759012345679025 66.5111111111111)"/><path d="M880 106a6 6 0 0 1 6-6h148a6 6 0 0 1 6 6v108a6 6 0 0 1-6 6H886a6 6 0 0 1-6-6z" stroke="#5e5e5e" stroke-width="2" fill="#6db1ff"/><use xlink:href="#h" transform="matrix(1,0,0,1,880,100) translate(19.579691358024725 47.761111111111106)"/><use xlink:href="#i" transform="matrix(1,0,0,1,880,100) translate(58.344506172839516 80.02777777777776)"/><path d="M960 222v9.94m0 9.94v19.87m0 9.94v19.86m0 9.94v19.88m0 9.93v19.9m0 9.93V381m0 9.94v19.87m0 9.95v19.88m0 9.93v19.88m0 9.94v19.87m0 9.94v19.86m0 9.94v19.88m0 9.93v19.9m0 9.92v19.88m0 9.94v19.87m0 9.95v19.88m0 9.93V699" stroke="#5e5e5e" stroke-width="2" fill="none"/><path d="M961 222.03h-2V221h2z" stroke="#5e5e5e" stroke-width=".05" fill="#5e5e5e"/><path d="M960 698.97V700M542 498.67h378.5" stroke="#5e5e5e" stroke-width="2" fill="none"/><path d="M542.03 499.67H541v-2h1.03z" stroke="#5e5e5e" stroke-width=".05" fill="#5e5e5e"/><path d="M935.76 498.67l-14.26 4.63v-9.27z" stroke="#5e5e5e" stroke-width="2" fill="#5e5e5e"/><use xlink:href="#j" transform="matrix(1,0,0,1,552.0533403703372,460.5262075072012) translate(0.0049999999999954525 20.616319444444443)"/><use xlink:href="#k" transform="matrix(1,0,0,1,552.0533403703372,460.5262075072012) translate(48.15314814814815 20.616319444444443)"/><path d="M940 266a6 6 0 0 1 6-6h28a6 6 0 0 1 6 6v388a6 6 0 0 1-6 6h-28a6 6 0 0 1-6-6z" stroke="#5e5e5e" stroke-width="2" fill="#fff"/><path d="M341.42 306a6 6 0 0 1 6-6h88a6 6 0 0 1 6 6v8a14.48 14.48 0 0 1-4.25 10.24l-1.5 1.52A14.48 14.48 0 0 1 425.4 330h-78a6 6 0 0 1-6-6z" fill="#fff"/><path d="M441.42 300v20l-10 10h-90" stroke="#5e5e5e" stroke-width="2" fill="none"/><path d="M341.42 306a6 6 0 0 1 6-6H1054a6 6 0 0 1 6 6v68a6 6 0 0 1-6 6H347.42a6 6 0 0 1-6-6z" stroke="#5e5e5e" stroke-width="2" fill="none"/><use xlink:href="#l" transform="matrix(1,0,0,1,349.41732283464563,300) translate(28.067901234567906 19.444444444444443)"/><use xlink:href="#m" transform="matrix(1,0,0,1,353.41732283464563,338) translate(8.36419753086426 19.444444444444443)"/><use xlink:href="#n" transform="matrix(1,0,0,1,353.41732283464563,338) translate(87.37654320987659 19.444444444444443)"/><use xlink:href="#o" transform="matrix(1,0,0,1,353.41732283464563,338) translate(194.6604938271605 19.444444444444443)"/><use xlink:href="#e" transform="matrix(1,0,0,1,353.41732283464563,338) translate(439.90740740740733 19.444444444444443)"/><use xlink:href="#p" transform="matrix(1,0,0,1,353.41732283464563,338) translate(452.253086419753 19.444444444444443)"/><path d="M938 540.57H559.5" stroke="#5e5e5e" stroke-width="2" fill="none"/><path d="M939 541.57h-1.03v-2H939z" stroke="#5e5e5e" stroke-width=".05" fill="#5e5e5e"/><path d="M544.24 540.57l14.26-4.64v9.27z" stroke="#5e5e5e" stroke-width="2" fill="#5e5e5e"/><g><use xlink:href="#q" transform="matrix(1,0,0,1,641.9138025378991,544.5666075593217) translate(1.8877160493826892 17.77777777777778)"/><use xlink:href="#r" transform="matrix(1,0,0,1,641.9138025378991,544.5666075593217) translate(107.9988271604938 17.77777777777778)"/><use xlink:href="#s" transform="matrix(1,0,0,1,641.9138025378991,544.5666075593217) translate(158.55438271604936 17.77777777777778)"/><use xlink:href="#t" transform="matrix(1,0,0,1,641.9138025378991,544.5666075593217) translate(0.0049999999999954525 44.44444444444444)"/></g><path d="M341.42 426a6 6 0 0 1 6-6h88a6 6 0 0 1 6 6v8a14.48 14.48 0 0 1-4.25 10.24l-1.5 1.52A14.48 14.48 0 0 1 425.4 450h-78a6 6 0 0 1-6-6z" fill="#fff"/><path d="M441.42 420v20l-10 10h-90" stroke="#5e5e5e" stroke-width="2" fill="none"/><path d="M341.42 426a6 6 0 0 1 6-6H1054a6 6 0 0 1 6 6v188a6 6 0 0 1-6 6H347.42a6 6 0 0 1-6-6z" stroke="#5e5e5e" stroke-width="2" fill="none"/><g><use xlink:href="#u" transform="matrix(1,0,0,1,349.41732283464563,420) translate(16.308641975308642 19.444444444444443)"/></g><g><use xlink:href="#v" transform="matrix(1,0,0,1,353.41732283464563,458) translate(4.135802469135811 19.444444444444443)"/></g><defs><path fill="#333" d="M30 0v-248h33v221h125V0H30" id="w"/><path fill="#333" d="M100-194c62-1 85 37 85 99 1 63-27 99-86 99S16-35 15-95c0-66 28-99 85-99zM99-20c44 1 53-31 53-75 0-43-8-75-51-75s-53 32-53 75 10 74 51 75" id="x"/><path fill="#333" d="M143 0L79-87 56-68V0H24v-261h32v163l83-92h37l-77 82L181 0h-38" id="y"/><path fill="#333" d="M84 4C-5 8 30-112 23-190h32v120c0 31 7 50 39 49 72-2 45-101 50-169h31l1 190h-30c-1-10 1-25-2-33-11 22-28 36-60 37" id="z"/><path fill="#333" d="M115-194c55 1 70 41 70 98S169 2 115 4C84 4 66-9 55-30l1 105H24l-1-265h31l2 30c10-21 28-34 59-34zm-8 174c40 0 45-34 45-75s-6-73-45-74c-42 0-51 32-51 76 0 43 10 73 51 73" id="A"/><g id="a"><use transform="matrix(0.06172839506172839,0,0,0.06172839506172839,0,0)" xlink:href="#w"/><use transform="matrix(0.06172839506172839,0,0,0.06172839506172839,12.345679012345679,0)" xlink:href="#x"/><use transform="matrix(0.06172839506172839,0,0,0.06172839506172839,24.691358024691358,0)" xlink:href="#x"/><use transform="matrix(0.06172839506172839,0,0,0.06172839506172839,37.03703703703704,0)" xlink:href="#y"/><use transform="matrix(0.06172839506172839,0,0,0.06172839506172839,48.14814814814815,0)" xlink:href="#z"/><use transform="matrix(0.06172839506172839,0,0,0.06172839506172839,60.49382716049383,0)" xlink:href="#A"/></g><path fill="#333" d="M135-143c-3-34-86-38-87 0 15 53 115 12 119 90S17 21 10-45l28-5c4 36 97 45 98 0-10-56-113-15-118-90-4-57 82-63 122-42 12 7 21 19 24 35" id="B"/><path fill="#333" d="M106-169C34-169 62-67 57 0H25v-261h32l-1 103c12-21 28-36 61-36 89 0 53 116 60 194h-32v-121c2-32-8-49-39-48" id="C"/><path fill="#333" d="M24-231v-30h32v30H24zM24 0v-190h32V0H24" id="D"/><path fill="#333" d="M210-169c-67 3-38 105-44 169h-31v-121c0-29-5-50-35-48C34-165 62-65 56 0H25l-1-190h30c1 10-1 24 2 32 10-44 99-50 107 0 11-21 27-35 58-36 85-2 47 119 55 194h-31v-121c0-29-5-49-35-48" id="E"/><path fill="#333" d="M100-194c63 0 86 42 84 106H49c0 40 14 67 53 68 26 1 43-12 49-29l28 8c-11 28-37 45-77 45C44 4 14-33 15-96c1-61 26-98 85-98zm52 81c6-60-76-77-97-28-3 7-6 17-6 28h103" id="F"/><path fill="#333" d="M117-194c89-4 53 116 60 194h-32v-121c0-31-8-49-39-48C34-167 62-67 57 0H25l-1-190h30c1 10-1 24 2 32 11-22 29-35 61-36" id="G"/><path fill="#333" d="M59-47c-2 24 18 29 38 22v24C64 9 27 4 27-40v-127H5v-23h24l9-43h21v43h35v23H59v120" id="H"/><g id="b"><use transform="matrix(0.06172839506172839,0,0,0.06172839506172839,0,0)" xlink:href="#B"/><use transform="matrix(0.06172839506172839,0,0,0.06172839506172839,11.11111111111111,0)" xlink:href="#C"/><use transform="matrix(0.06172839506172839,0,0,0.06172839506172839,23.45679012345679,0)" xlink:href="#D"/><use transform="matrix(0.06172839506172839,0,0,0.06172839506172839,28.333333333333336,0)" xlink:href="#A"/><use transform="matrix(0.06172839506172839,0,0,0.06172839506172839,40.67901234567901,0)" xlink:href="#E"/><use transform="matrix(0.06172839506172839,0,0,0.06172839506172839,59.1358024691358,0)" xlink:href="#F"/><use transform="matrix(0.06172839506172839,0,0,0.06172839506172839,71.48148148148148,0)" xlink:href="#G"/><use transform="matrix(0.06172839506172839,0,0,0.06172839506172839,83.82716049382717,0)" xlink:href="#H"/></g><path fill="#333" d="M108 0H70L1-190h34L89-25l56-165h34" id="I"/><g id="c"><use transform="matrix(0.06172839506172839,0,0,0.06172839506172839,0,0)" xlink:href="#F"/><use transform="matrix(0.06172839506172839,0,0,0.06172839506172839,12.345679012345679,0)" xlink:href="#I"/><use transform="matrix(0.06172839506172839,0,0,0.06172839506172839,23.45679012345679,0)" xlink:href="#F"/><use transform="matrix(0.06172839506172839,0,0,0.06172839506172839,35.80246913580247,0)" xlink:href="#G"/><use transform="matrix(0.06172839506172839,0,0,0.06172839506172839,48.148148148148145,0)" xlink:href="#H"/><use transform="matrix(0.06172839506172839,0,0,0.06172839506172839,54.32098765432099,0)" xlink:href="#B"/></g><path fill="#333" d="M87 75C49 33 22-17 22-94c0-76 28-126 65-167h31c-38 41-64 92-64 168S80 34 118 75H87" id="J"/><path fill="#333" d="M85-194c31 0 48 13 60 33l-1-100h32l1 261h-30c-2-10 0-23-3-31C134-8 116 4 85 4 32 4 16-35 15-94c0-66 23-100 70-100zm9 24c-40 0-46 34-46 75 0 40 6 74 45 74 42 0 51-32 51-76 0-42-9-74-50-73" id="K"/><path fill="#333" d="M33-261c38 41 65 92 65 168S71 34 33 75H2C39 34 66-17 66-93S39-220 2-261h31" id="L"/><g id="d"><use transform="matrix(0.06172839506172839,0,0,0.06172839506172839,0,0)" xlink:href="#J"/><use transform="matrix(0.06172839506172839,0,0,0.06172839506172839,7.345679012345679,0)" xlink:href="#D"/><use transform="matrix(0.06172839506172839,0,0,0.06172839506172839,12.222222222222221,0)" xlink:href="#K"/><use transform="matrix(0.06172839506172839,0,0,0.06172839506172839,24.5679012345679,0)" xlink:href="#L"/></g><path fill="#333" d="M33-154v-36h34v36H33zM33 0v-36h34V0H33" id="M"/><use transform="matrix(0.06172839506172839,0,0,0.06172839506172839,0,0)" xlink:href="#M" id="e"/><path fill="#333" d="M185-189c-5-48-123-54-124 2 14 75 158 14 163 119 3 78-121 87-175 55-17-10-28-26-33-46l33-7c5 56 141 63 141-1 0-78-155-14-162-118-5-82 145-84 179-34 5 7 8 16 11 25" id="N"/><path fill="#333" d="M30 0v-248h187v28H63v79h144v27H63v87h162V0H30" id="O"/><path fill="#333" d="M26 75v-336h71v23H56V52h41v23H26" id="P"/><path fill="#333" d="M101-251c68 0 85 55 85 127S166 4 100 4C33 4 14-52 14-124c0-73 17-127 87-127zm-1 229c47 0 54-49 54-102s-4-102-53-102c-51 0-55 48-55 102 0 53 5 102 54 102" id="Q"/><path fill="#333" d="M33 0v-38h34V0H33" id="R"/><path fill="#333" d="M80-196l47-18 7 23-49 13 32 44-20 13-27-46-27 45-21-12 33-44-49-13 8-23 47 19-2-53h23" id="S"/><path fill="#333" d="M3 75V52h41v-290H3v-23h71V75H3" id="T"/><g id="f"><use transform="matrix(0.06172839506172839,0,0,0.06172839506172839,0,0)" xlink:href="#N"/><use transform="matrix(0.06172839506172839,0,0,0.06172839506172839,14.814814814814813,0)" xlink:href="#C"/><use transform="matrix(0.06172839506172839,0,0,0.06172839506172839,27.160493827160494,0)" xlink:href="#D"/><use transform="matrix(0.06172839506172839,0,0,0.06172839506172839,32.03703703703704,0)" xlink:href="#A"/><use transform="matrix(0.06172839506172839,0,0,0.06172839506172839,44.382716049382715,0)" xlink:href="#E"/><use transform="matrix(0.06172839506172839,0,0,0.06172839506172839,62.839506172839506,0)" xlink:href="#F"/><use transform="matrix(0.06172839506172839,0,0,0.06172839506172839,75.18518518518519,0)" xlink:href="#G"/><use transform="matrix(0.06172839506172839,0,0,0.06172839506172839,87.53086419753087,0)" xlink:href="#H"/><use transform="matrix(0.06172839506172839,0,0,0.06172839506172839,93.70370370370371,0)" xlink:href="#O"/><use transform="matrix(0.06172839506172839,0,0,0.06172839506172839,108.51851851851852,0)" xlink:href="#I"/><use transform="matrix(0.06172839506172839,0,0,0.06172839506172839,119.62962962962963,0)" xlink:href="#F"/><use transform="matrix(0.06172839506172839,0,0,0.06172839506172839,131.97530864197532,0)" xlink:href="#G"/><use transform="matrix(0.06172839506172839,0,0,0.06172839506172839,144.320987654321,0)" xlink:href="#H"/><use transform="matrix(0.06172839506172839,0,0,0.06172839506172839,150.49382716049382,0)" xlink:href="#P"/><use transform="matrix(0.06172839506172839,0,0,0.06172839506172839,156.66666666666666,0)" xlink:href="#Q"/><use transform="matrix(0.06172839506172839,0,0,0.06172839506172839,169.01234567901233,0)" xlink:href="#R"/><use transform="matrix(0.06172839506172839,0,0,0.06172839506172839,175.18518518518516,0)" xlink:href="#R"/><use transform="matrix(0.06172839506172839,0,0,0.06172839506172839,181.358024691358,0)" xlink:href="#S"/><use transform="matrix(0.06172839506172839,0,0,0.06172839506172839,189.99999999999997,0)" xlink:href="#T"/></g><path d="M212-179c-10-28-35-45-73-45-59 0-87 40-87 99 0 60 29 101 89 101 43 0 62-24 78-52l27 14C228-24 195 4 139 4 59 4 22-46 18-125c-6-104 99-153 187-111 19 9 31 26 39 46" id="U"/><path d="M24 0v-261h32V0H24" id="V"/><path d="M24-231v-30h32v30H24zM24 0v-190h32V0H24" id="W"/><path d="M100-194c63 0 86 42 84 106H49c0 40 14 67 53 68 26 1 43-12 49-29l28 8c-11 28-37 45-77 45C44 4 14-33 15-96c1-61 26-98 85-98zm52 81c6-60-76-77-97-28-3 7-6 17-6 28h103" id="X"/><path d="M117-194c89-4 53 116 60 194h-32v-121c0-31-8-49-39-48C34-167 62-67 57 0H25l-1-190h30c1 10-1 24 2 32 11-22 29-35 61-36" id="Y"/><path d="M59-47c-2 24 18 29 38 22v24C64 9 27 4 27-40v-127H5v-23h24l9-43h21v43h35v23H59v120" id="Z"/><g id="g"><use transform="matrix(0.07469135802469132,0,0,0.07469135802469132,0,0)" xlink:href="#U"/><use transform="matrix(0.07469135802469132,0,0,0.07469135802469132,19.345061728395052,0)" xlink:href="#V"/><use transform="matrix(0.07469135802469132,0,0,0.07469135802469132,25.245679012345665,0)" xlink:href="#W"/><use transform="matrix(0.07469135802469132,0,0,0.07469135802469132,31.14629629629628,0)" xlink:href="#X"/><use transform="matrix(0.07469135802469132,0,0,0.07469135802469132,46.08456790123454,0)" xlink:href="#Y"/><use transform="matrix(0.07469135802469132,0,0,0.07469135802469132,61.02283950617281,0)" xlink:href="#Z"/></g><path d="M141-36C126-15 110 5 73 4 37 3 15-17 15-53c-1-64 63-63 125-63 3-35-9-54-41-54-24 1-41 7-42 31l-33-3c5-37 33-52 76-52 45 0 72 20 72 64v82c-1 20 7 32 28 27v20c-31 9-61-2-59-35zM48-53c0 20 12 33 32 33 41-3 63-29 60-74-43 2-92-5-92 41" id="aa"/><path d="M114-163C36-179 61-72 57 0H25l-1-190h30c1 12-1 29 2 39 6-27 23-49 58-41v29" id="ab"/><path d="M177-190C167-65 218 103 67 71c-23-6-38-20-44-43l32-5c15 47 100 32 89-28v-30C133-14 115 1 83 1 29 1 15-40 15-95c0-56 16-97 71-98 29-1 48 16 59 35 1-10 0-23 2-32h30zM94-22c36 0 50-32 50-73 0-42-14-75-50-75-39 0-46 34-46 75s6 73 46 73" id="ac"/><path d="M100-194c62-1 85 37 85 99 1 63-27 99-86 99S16-35 15-95c0-66 28-99 85-99zM99-20c44 1 53-31 53-75 0-43-8-75-51-75s-53 32-53 75 10 74 51 75" id="ad"/><path d="M185-189c-5-48-123-54-124 2 14 75 158 14 163 119 3 78-121 87-175 55-17-10-28-26-33-46l33-7c5 56 141 63 141-1 0-78-155-14-162-118-5-82 145-84 179-34 5 7 8 16 11 25" id="ae"/><path d="M101-234c-31-9-42 10-38 44h38v23H63V0H32v-167H5v-23h27c-7-52 17-82 69-68v24" id="af"/><g id="h"><use transform="matrix(0.07469135802469132,0,0,0.07469135802469132,0,0)" xlink:href="#U"/><use transform="matrix(0.07469135802469132,0,0,0.07469135802469132,19.345061728395052,0)" xlink:href="#aa"/><use transform="matrix(0.07469135802469132,0,0,0.07469135802469132,34.28333333333332,0)" xlink:href="#ab"/><use transform="matrix(0.07469135802469132,0,0,0.07469135802469132,43.171604938271585,0)" xlink:href="#ac"/><use transform="matrix(0.07469135802469132,0,0,0.07469135802469132,58.10987654320985,0)" xlink:href="#ad"/><use transform="matrix(0.07469135802469132,0,0,0.07469135802469132,73.04814814814812,0)" xlink:href="#ae"/><use transform="matrix(0.07469135802469132,0,0,0.07469135802469132,90.97407407407403,0)" xlink:href="#ad"/><use transform="matrix(0.07469135802469132,0,0,0.07469135802469132,105.91234567901229,0)" xlink:href="#af"/><use transform="matrix(0.07469135802469132,0,0,0.07469135802469132,113.38148148148142,0)" xlink:href="#Z"/></g><path d="M205 0l-28-72H64L36 0H1l101-248h38L239 0h-34zm-38-99l-47-123c-12 45-31 82-46 123h93" id="ag"/><path d="M30-248c87 1 191-15 191 75 0 78-77 80-158 76V0H30v-248zm33 125c57 0 124 11 124-50 0-59-68-47-124-48v98" id="ah"/><path d="M33 0v-248h34V0H33" id="ai"/><g id="i"><use transform="matrix(0.07469135802469132,0,0,0.07469135802469132,0,0)" xlink:href="#ag"/><use transform="matrix(0.07469135802469132,0,0,0.07469135802469132,17.925925925925917,0)" xlink:href="#ah"/><use transform="matrix(0.07469135802469132,0,0,0.07469135802469132,35.85185185185183,0)" xlink:href="#ai"/></g><g id="j"><use transform="matrix(0.06172839506172839,0,0,0.06172839506172839,0,0)" xlink:href="#A"/><use transform="matrix(0.06172839506172839,0,0,0.06172839506172839,12.345679012345679,0)" xlink:href="#x"/><use transform="matrix(0.06172839506172839,0,0,0.06172839506172839,24.691358024691358,0)" xlink:href="#B"/><use transform="matrix(0.06172839506172839,0,0,0.06172839506172839,35.80246913580247,0)" xlink:href="#H"/></g><path fill="#212121" d="M277-555c0 244 77 420 297 424 127 2 249-93 255-210h175C980-127 805 20 574 20 258 20 81-222 92-562c11-319 164-533 481-540 237-5 426 165 431 392H829c-7-133-115-242-256-240-209 4-296 166-296 395" id="aj"/><path fill="#212121" d="M561-1102c238-4 403 126 403 351v498c0 99 13 178 38 237V0H808c-11-21-19-59-26-114C696-25 593 20 474 20c-199 0-368-130-365-320 4-251 214-359 490-356h180v-85c-1-135-86-212-229-212-115 0-232 67-233 171H131c20-205 206-316 430-320zM294-326c0 117 90 185 207 185 122 0 239-75 278-162v-222H634c-227 0-340 66-340 199" id="ak"/><path fill="#212121" d="M663-916c-163-27-288 18-338 148V0H140v-1082h180l3 125c61-97 147-145 258-145 36 0 63 5 82 14v172" id="al"/><path fill="#212121" d="M521 20C240 20 96-239 96-550c0-303 147-552 427-552 132 0 235 47 309 140l9-120h169V-26c4 277-183 454-459 452-165-1-334-81-400-187l96-111c79 98 176 147 291 147 180 1 288-109 286-290v-93C750-23 649 20 521 20zm48-965c-209 0-287 178-287 416 0 217 86 392 285 392 117 0 202-53 257-159v-494c-57-103-142-155-255-155" id="am"/><path fill="#212121" d="M584 20C278 26 81-227 91-551c10-320 175-545 491-551 308-5 503 247 494 573-9 322-175 543-492 549zm-2-970c-208 0-305 185-305 421 0 216 106 398 307 398 211 0 307-186 307-420 0-214-109-399-309-399" id="an"/><path fill="#212121" d="M538-131c121 0 232-49 232-156 0-50-20-88-56-117-73-60-334-92-420-143-92-55-162-110-162-238 0-190 192-317 400-317 223 0 414 129 413 338H759c0-108-110-186-227-186-119 0-215 53-215 159 0 45 18 78 53 101 76 52 331 90 416 139 98 57 169 115 169 251C955-92 760 20 538 20c-176 0-314-68-386-174-38-55-57-115-57-179h185c6 129 116 202 258 202" id="ao"/><path fill="#212121" d="M704-1390c-164-38-297 28-288 194v114h231v143H416V0H231v-939H60v-143h171v-111c-12-274 208-416 483-347" id="ap"/><path fill="#212121" d="M456 20C285 20 205-92 206-268v-671H9v-143h197v-262h185v262h202v143H391v671c-9 125 92 149 207 118V0c-49 13-96 20-142 20" id="aq"/><path fill="#212121" d="M177 125H18l608-1581h158" id="ar"/><path fill="#212121" d="M589-945c-131 0-219 81-264 174V0H140v-1536h185v585c82-101 189-151 320-151 229 0 346 129 346 387V0H806v-716c-2-153-65-229-217-229" id="as"/><path fill="#212121" d="M341 0H156v-1082h185V0zm-91-1264c-68 0-108-42-109-105 0-62 41-107 109-107s110 44 110 107-42 105-110 105" id="at"/><path fill="#212121" d="M632-1102c291 0 422 251 422 573 0 297-141 548-419 549-131 0-235-42-310-125v521H140v-1498h169l9 120c75-93 180-140 314-140zm-53 971c207 0 290-180 290-419 0-218-92-395-292-395-112 0-196 50-252 149v517c55 99 140 148 254 148" id="au"/><path fill="#212121" d="M1240-945c-141 0-250 95-250 227V0H804v-709c0-157-77-236-231-236-121 0-204 52-249 155V0H139v-1082h175l5 120c79-93 186-140 321-140 151 0 254 58 309 174 69-98 181-174 345-174 237 0 362 126 362 377V0h-185v-714c-2-159-67-231-231-231" id="av"/><path fill="#212121" d="M599-131c141 0 220-65 285-146l113 88C906-50 770 20 589 20 281 21 93-214 93-545c0-223 93-397 233-485 74-48 154-72 240-72 300 2 449 218 445 537v77H278c0 197 129 357 321 357zm227-509c-3-180-88-310-260-310-170 0-264 140-282 310h542" id="aw"/><path fill="#212121" d="M589-945c-131 0-219 81-264 174V0H140v-1082h175l6 136c83-104 191-156 324-156 229 0 346 129 346 387V0H806v-716c-2-153-65-229-217-229" id="ax"/><path fill="#212121" d="M632 366c-220-63-354-197-356-467v-199c0-162-71-243-212-243v-145c141 0 212-81 212-242v-208c6-266 134-395 356-459l38 115c-139 45-209 161-209 349v202c0 151-56 257-167 316 111 60 167 166 167 319v206c2 183 72 297 209 341" id="ay"/><path fill="#212121" d="M520 20C244 20 95-247 95-550c0-298 151-550 427-552 127 0 227 43 301 130v-564h185V0H838l-9-116C755-25 652 20 520 20zm48-965c-210 0-288 177-288 416 0 218 87 392 286 392 117 0 203-53 257-158v-497c-55-102-140-153-255-153" id="az"/><path fill="#212121" d="M58-1597c220 63 352 193 356 460v210c0 159 71 239 212 239v145c-141 0-212 81-212 243v202c-2 269-138 401-356 464L19 251C154 208 229 97 229-80v-220c0-154 60-259 181-315-121-55-181-160-181-315v-203c0-188-70-304-209-349" id="aA"/><path fill="#212121" d="M497-251l268-831h189L566 0H425L33-1082h189" id="aB"/><g id="k"><use transform="matrix(0.06172839506172839,0,0,0.06172839506172839,0,0)" xlink:href="#J"/><use transform="matrix(0.010850694444444444,0,0,0.010850694444444444,7.345679012345679,0)" xlink:href="#aj"/><use transform="matrix(0.010850694444444444,0,0,0.010850694444444444,18.977623456790123,0)" xlink:href="#ak"/><use transform="matrix(0.010850694444444444,0,0,0.010850694444444444,31.06529706790123,0)" xlink:href="#al"/><use transform="matrix(0.010850694444444444,0,0,0.010850694444444444,38.37866512345679,0)" xlink:href="#am"/><use transform="matrix(0.010850694444444444,0,0,0.010850694444444444,50.846113040123456,0)" xlink:href="#an"/><use transform="matrix(0.010850694444444444,0,0,0.010850694444444444,63.51972415123457,0)" xlink:href="#ao"/><use transform="matrix(0.010850694444444444,0,0,0.010850694444444444,74.9780574845679,0)" xlink:href="#an"/><use transform="matrix(0.010850694444444444,0,0,0.010850694444444444,87.65166859567901,0)" xlink:href="#ap"/><use transform="matrix(0.010850694444444444,0,0,0.010850694444444444,95.36651234567901,0)" xlink:href="#aq"/><use transform="matrix(0.010850694444444444,0,0,0.010850694444444444,102.62562692901234,0)" xlink:href="#ar"/><use transform="matrix(0.010850694444444444,0,0,0.010850694444444444,111.78361304012346,0)" xlink:href="#ao"/><use transform="matrix(0.010850694444444444,0,0,0.010850694444444444,123.24194637345678,0)" xlink:href="#as"/><use transform="matrix(0.010850694444444444,0,0,0.010850694444444444,135.48152970679013,0)" xlink:href="#at"/><use transform="matrix(0.010850694444444444,0,0,0.010850694444444444,140.874324845679,0)" xlink:href="#au"/><use transform="matrix(0.010850694444444444,0,0,0.010850694444444444,153.34177276234567,0)" xlink:href="#av"/><use transform="matrix(0.010850694444444444,0,0,0.010850694444444444,172.81876929012344,0)" xlink:href="#aw"/><use transform="matrix(0.010850694444444444,0,0,0.010850694444444444,184.59177276234567,0)" xlink:href="#ax"/><use transform="matrix(0.010850694444444444,0,0,0.010850694444444444,196.8530574845679,0)" xlink:href="#aq"/><use transform="matrix(0.010850694444444444,0,0,0.010850694444444444,204.11217206790124,0)" xlink:href="#ar"/><use transform="matrix(0.010850694444444444,0,0,0.010850694444444444,213.27015817901236,0)" xlink:href="#ay"/><use transform="matrix(0.010850694444444444,0,0,0.010850694444444444,220.78968942901236,0)" xlink:href="#at"/><use transform="matrix(0.010850694444444444,0,0,0.010850694444444444,226.18248456790124,0)" xlink:href="#az"/><use transform="matrix(0.010850694444444444,0,0,0.010850694444444444,238.7150366512346,0)" xlink:href="#aA"/><use transform="matrix(0.010850694444444444,0,0,0.010850694444444444,246.2345679012346,0)" xlink:href="#ar"/><use transform="matrix(0.010850694444444444,0,0,0.010850694444444444,255.39255401234573,0)" xlink:href="#aw"/><use transform="matrix(0.010850694444444444,0,0,0.010850694444444444,267.0244984567901,0)" xlink:href="#aB"/><use transform="matrix(0.010850694444444444,0,0,0.010850694444444444,277.64732831790127,0)" xlink:href="#aw"/><use transform="matrix(0.010850694444444444,0,0,0.010850694444444444,289.4203317901235,0)" xlink:href="#ax"/><use transform="matrix(0.010850694444444444,0,0,0.010850694444444444,301.6816165123457,0)" xlink:href="#aq"/><use transform="matrix(0.010850694444444444,0,0,0.010850694444444444,308.94073109567904,0)" xlink:href="#ao"/><use transform="matrix(0.06172839506172839,0,0,0.06172839506172839,320.39906442901236,0)" xlink:href="#L"/></g><path fill="#333" d="M114-163C36-179 61-72 57 0H25l-1-190h30c1 12-1 29 2 39 6-27 23-49 58-41v29" id="aC"/><path fill="#333" d="M101-234c-31-9-42 10-38 44h38v23H63V0H32v-167H5v-23h27c-7-52 17-82 69-68v24" id="aD"/><g id="l"><use transform="matrix(0.061728395061728385,0,0,0.061728395061728385,0,0)" xlink:href="#aC"/><use transform="matrix(0.061728395061728385,0,0,0.061728395061728385,7.345679012345678,0)" xlink:href="#F"/><use transform="matrix(0.061728395061728385,0,0,0.061728395061728385,19.691358024691354,0)" xlink:href="#aD"/></g><g id="m"><use transform="matrix(0.061728395061728385,0,0,0.061728395061728385,0,0)" xlink:href="#w"/><use transform="matrix(0.061728395061728385,0,0,0.061728395061728385,12.345679012345677,0)" xlink:href="#x"/><use transform="matrix(0.061728395061728385,0,0,0.061728395061728385,24.691358024691354,0)" xlink:href="#x"/><use transform="matrix(0.061728395061728385,0,0,0.061728395061728385,37.03703703703703,0)" xlink:href="#y"/><use transform="matrix(0.061728395061728385,0,0,0.061728395061728385,48.14814814814814,0)" xlink:href="#z"/><use transform="matrix(0.061728395061728385,0,0,0.061728395061728385,60.493827160493815,0)" xlink:href="#A"/></g><g id="n"><use transform="matrix(0.061728395061728385,0,0,0.061728395061728385,0,0)" xlink:href="#B"/><use transform="matrix(0.061728395061728385,0,0,0.061728395061728385,11.111111111111109,0)" xlink:href="#C"/><use transform="matrix(0.061728395061728385,0,0,0.061728395061728385,23.456790123456784,0)" xlink:href="#D"/><use transform="matrix(0.061728395061728385,0,0,0.061728395061728385,28.33333333333333,0)" xlink:href="#A"/><use transform="matrix(0.061728395061728385,0,0,0.061728395061728385,40.679012345679006,0)" xlink:href="#E"/><use transform="matrix(0.061728395061728385,0,0,0.061728395061728385,59.1358024691358,0)" xlink:href="#F"/><use transform="matrix(0.061728395061728385,0,0,0.061728395061728385,71.48148148148147,0)" xlink:href="#G"/><use transform="matrix(0.061728395061728385,0,0,0.061728395061728385,83.82716049382714,0)" xlink:href="#H"/><use transform="matrix(0.061728395061728385,0,0,0.061728395061728385,89.99999999999997,0)" xlink:href="#B"/></g><path fill="#333" d="M33 0v-248h34V0H33" id="aE"/><g id="o"><use transform="matrix(0.061728395061728385,0,0,0.061728395061728385,0,0)" xlink:href="#J"/><use transform="matrix(0.061728395061728385,0,0,0.061728395061728385,7.345679012345678,0)" xlink:href="#N"/><use transform="matrix(0.061728395061728385,0,0,0.061728395061728385,22.16049382716049,0)" xlink:href="#C"/><use transform="matrix(0.061728395061728385,0,0,0.061728395061728385,34.50617283950616,0)" xlink:href="#D"/><use transform="matrix(0.061728395061728385,0,0,0.061728395061728385,39.38271604938271,0)" xlink:href="#A"/><use transform="matrix(0.06172839506172839,0,0,0.06172839506172839,51.728395061728385,0)" xlink:href="#E"/><use transform="matrix(0.06172839506172839,0,0,0.06172839506172839,70.18518518518518,0)" xlink:href="#F"/><use transform="matrix(0.06172839506172839,0,0,0.06172839506172839,82.53086419753086,0)" xlink:href="#G"/><use transform="matrix(0.06172839506172839,0,0,0.06172839506172839,94.87654320987654,0)" xlink:href="#H"/><use transform="matrix(0.06172839506172839,0,0,0.06172839506172839,101.04938271604938,0)" xlink:href="#aE"/><use transform="matrix(0.06172839506172839,0,0,0.06172839506172839,107.22222222222221,0)" xlink:href="#K"/><use transform="matrix(0.06172839506172839,0,0,0.06172839506172839,119.5679012345679,0)" xlink:href="#F"/><use transform="matrix(0.06172839506172839,0,0,0.06172839506172839,131.91358024691357,0)" xlink:href="#G"/><use transform="matrix(0.06172839506172839,0,0,0.06172839506172839,144.25925925925924,0)" xlink:href="#H"/><use transform="matrix(0.06172839506172839,0,0,0.06172839506172839,150.43209876543207,0)" xlink:href="#D"/><use transform="matrix(0.06172839506172839,0,0,0.06172839506172839,155.3086419753086,0)" xlink:href="#aD"/><use transform="matrix(0.06172839506172839,0,0,0.06172839506172839,161.48148148148144,0)" xlink:href="#D"/><use transform="matrix(0.06172839506172839,0,0,0.06172839506172839,166.35802469135797,0)" xlink:href="#F"/><use transform="matrix(0.06172839506172839,0,0,0.06172839506172839,178.70370370370364,0)" xlink:href="#aC"/><use transform="matrix(0.06172839506172839,0,0,0.06172839506172839,186.0493827160493,0)" xlink:href="#P"/><use transform="matrix(0.06172839506172839,0,0,0.06172839506172839,192.22222222222214,0)" xlink:href="#Q"/><use transform="matrix(0.06172839506172839,0,0,0.06172839506172839,204.5679012345678,0)" xlink:href="#R"/><use transform="matrix(0.06172839506172839,0,0,0.06172839506172839,210.74074074074065,0)" xlink:href="#R"/><use transform="matrix(0.06172839506172839,0,0,0.06172839506172839,216.91358024691348,0)" xlink:href="#S"/><use transform="matrix(0.06172839506172839,0,0,0.06172839506172839,225.55555555555546,0)" xlink:href="#T"/><use transform="matrix(0.06172839506172839,0,0,0.06172839506172839,231.7283950617283,0)" xlink:href="#L"/></g><g id="p"><use transform="matrix(0.06172839506172839,0,0,0.06172839506172839,0,0)" xlink:href="#N"/><use transform="matrix(0.06172839506172839,0,0,0.06172839506172839,14.814814814814813,0)" xlink:href="#C"/><use transform="matrix(0.06172839506172839,0,0,0.06172839506172839,27.160493827160494,0)" xlink:href="#D"/><use transform="matrix(0.06172839506172839,0,0,0.06172839506172839,32.03703703703704,0)" xlink:href="#A"/><use transform="matrix(0.06172839506172839,0,0,0.06172839506172839,44.382716049382715,0)" xlink:href="#E"/><use transform="matrix(0.06172839506172839,0,0,0.06172839506172839,62.839506172839506,0)" xlink:href="#F"/><use transform="matrix(0.06172839506172839,0,0,0.06172839506172839,75.18518518518519,0)" xlink:href="#G"/><use transform="matrix(0.06172839506172839,0,0,0.06172839506172839,87.53086419753087,0)" xlink:href="#H"/><use transform="matrix(0.06172839506172839,0,0,0.06172839506172839,93.70370370370371,0)" xlink:href="#P"/><use transform="matrix(0.06172839506172839,0,0,0.06172839506172839,99.87654320987654,0)" xlink:href="#Q"/><use transform="matrix(0.06172839506172839,0,0,0.06172839506172839,112.22222222222223,0)" xlink:href="#R"/><use transform="matrix(0.06172839506172839,0,0,0.06172839506172839,118.39506172839506,0)" xlink:href="#R"/><use transform="matrix(0.06172839506172839,0,0,0.06172839506172839,124.5679012345679,0)" xlink:href="#S"/><use transform="matrix(0.06172839506172839,0,0,0.06172839506172839,133.20987654320987,0)" xlink:href="#T"/></g><path fill="#333" d="M233-177c-1 41-23 64-60 70L243 0h-38l-65-103H63V0H30v-248c88 3 205-21 203 71zM63-129c60-2 137 13 137-47 0-61-80-42-137-45v92" id="aF"/><g id="q"><use transform="matrix(0.06172839506172839,0,0,0.06172839506172839,0,0)" xlink:href="#aF"/><use transform="matrix(0.06172839506172839,0,0,0.06172839506172839,15.987654320987653,0)" xlink:href="#F"/><use transform="matrix(0.06172839506172839,0,0,0.06172839506172839,28.333333333333332,0)" xlink:href="#B"/><use transform="matrix(0.06172839506172839,0,0,0.06172839506172839,39.44444444444444,0)" xlink:href="#A"/><use transform="matrix(0.06172839506172839,0,0,0.06172839506172839,51.79012345679012,0)" xlink:href="#x"/><use transform="matrix(0.06172839506172839,0,0,0.06172839506172839,64.1358024691358,0)" xlink:href="#G"/><use transform="matrix(0.06172839506172839,0,0,0.06172839506172839,76.48148148148148,0)" xlink:href="#B"/><use transform="matrix(0.06172839506172839,0,0,0.06172839506172839,87.5925925925926,0)" xlink:href="#F"/></g><path fill="#333" d="M101-251c82-7 93 87 43 132L82-64C71-53 59-42 53-27h129V0H18c2-99 128-94 128-182 0-28-16-43-45-43s-46 15-49 41l-32-3c6-41 34-60 81-64" id="aG"/><g id="r"><use transform="matrix(0.06172839506172839,0,0,0.06172839506172839,0,0)" xlink:href="#J"/><use transform="matrix(0.06172839506172839,0,0,0.06172839506172839,7.345679012345679,0)" xlink:href="#aG"/><use transform="matrix(0.06172839506172839,0,0,0.06172839506172839,19.691358024691358,0)" xlink:href="#Q"/><use transform="matrix(0.06172839506172839,0,0,0.06172839506172839,32.03703703703704,0)" xlink:href="#Q"/></g><path fill="#333" d="M140-251c81 0 123 46 123 126C263-46 219 4 140 4 59 4 17-45 17-125s42-126 123-126zm0 227c63 0 89-41 89-101s-29-99-89-99c-61 0-89 39-89 99S79-25 140-24" id="aH"/><g id="s"><use transform="matrix(0.06172839506172839,0,0,0.06172839506172839,0,0)" xlink:href="#aH"/><use transform="matrix(0.06172839506172839,0,0,0.06172839506172839,17.28395061728395,0)" xlink:href="#y"/><use transform="matrix(0.06172839506172839,0,0,0.06172839506172839,28.39506172839506,0)" xlink:href="#L"/></g><g id="t"><use transform="matrix(0.06172839506172839,0,0,0.06172839506172839,0,0)" xlink:href="#N"/><use transform="matrix(0.06172839506172839,0,0,0.06172839506172839,14.814814814814813,0)" xlink:href="#C"/><use transform="matrix(0.06172839506172839,0,0,0.06172839506172839,27.160493827160494,0)" xlink:href="#D"/><use transform="matrix(0.06172839506172839,0,0,0.06172839506172839,32.03703703703704,0)" xlink:href="#A"/><use transform="matrix(0.06172839506172839,0,0,0.06172839506172839,44.382716049382715,0)" xlink:href="#E"/><use transform="matrix(0.06172839506172839,0,0,0.06172839506172839,62.839506172839506,0)" xlink:href="#F"/><use transform="matrix(0.06172839506172839,0,0,0.06172839506172839,75.18518518518519,0)" xlink:href="#G"/><use transform="matrix(0.06172839506172839,0,0,0.06172839506172839,87.53086419753087,0)" xlink:href="#H"/><use transform="matrix(0.06172839506172839,0,0,0.06172839506172839,93.70370370370371,0)" xlink:href="#O"/><use transform="matrix(0.06172839506172839,0,0,0.06172839506172839,108.51851851851852,0)" xlink:href="#I"/><use transform="matrix(0.06172839506172839,0,0,0.06172839506172839,119.62962962962963,0)" xlink:href="#F"/><use transform="matrix(0.06172839506172839,0,0,0.06172839506172839,131.97530864197532,0)" xlink:href="#G"/><use transform="matrix(0.06172839506172839,0,0,0.06172839506172839,144.320987654321,0)" xlink:href="#H"/><use transform="matrix(0.06172839506172839,0,0,0.06172839506172839,150.49382716049382,0)" xlink:href="#P"/><use transform="matrix(0.06172839506172839,0,0,0.06172839506172839,156.66666666666666,0)" xlink:href="#Q"/><use transform="matrix(0.06172839506172839,0,0,0.06172839506172839,169.01234567901233,0)" xlink:href="#R"/><use transform="matrix(0.06172839506172839,0,0,0.06172839506172839,175.18518518518516,0)" xlink:href="#R"/><use transform="matrix(0.06172839506172839,0,0,0.06172839506172839,181.358024691358,0)" xlink:href="#S"/><use transform="matrix(0.06172839506172839,0,0,0.06172839506172839,189.99999999999997,0)" xlink:href="#T"/></g><g id="u"><use transform="matrix(0.06172839506172839,0,0,0.06172839506172839,0,0)" xlink:href="#w"/><use transform="matrix(0.06172839506172839,0,0,0.06172839506172839,12.345679012345679,0)" xlink:href="#x"/><use transform="matrix(0.06172839506172839,0,0,0.06172839506172839,24.691358024691358,0)" xlink:href="#x"/><use transform="matrix(0.06172839506172839,0,0,0.06172839506172839,37.03703703703704,0)" xlink:href="#A"/></g><g id="v"><use transform="matrix(0.06172839506172839,0,0,0.06172839506172839,0,0)" xlink:href="#P"/><use transform="matrix(0.06172839506172839,0,0,0.06172839506172839,6.172839506172839,0)" xlink:href="#N"/><use transform="matrix(0.06172839506172839,0,0,0.06172839506172839,20.98765432098765,0)" xlink:href="#C"/><use transform="matrix(0.06172839506172839,0,0,0.06172839506172839,33.33333333333333,0)" xlink:href="#D"/><use transform="matrix(0.06172839506172839,0,0,0.06172839506172839,38.20987654320987,0)" xlink:href="#A"/><use transform="matrix(0.06172839506172839,0,0,0.06172839506172839,50.55555555555555,0)" xlink:href="#E"/><use transform="matrix(0.06172839506172839,0,0,0.06172839506172839,69.01234567901234,0)" xlink:href="#F"/><use transform="matrix(0.06172839506172839,0,0,0.06172839506172839,81.35802469135803,0)" xlink:href="#G"/><use transform="matrix(0.06172839506172839,0,0,0.06172839506172839,93.70370370370371,0)" xlink:href="#H"/><use transform="matrix(0.06172839506172839,0,0,0.06172839506172839,99.87654320987654,0)" xlink:href="#P"/><use transform="matrix(0.06172839506172839,0,0,0.06172839506172839,106.04938271604938,0)" xlink:href="#Q"/><use transform="matrix(0.06172839506172839,0,0,0.06172839506172839,118.39506172839506,0)" xlink:href="#R"/><use transform="matrix(0.06172839506172839,0,0,0.06172839506172839,124.5679012345679,0)" xlink:href="#R"/><use transform="matrix(0.06172839506172839,0,0,0.06172839506172839,130.74074074074073,0)" xlink:href="#S"/><use transform="matrix(0.06172839506172839,0,0,0.06172839506172839,139.3827160493827,0)" xlink:href="#T"/><use transform="matrix(0.06172839506172839,0,0,0.06172839506172839,145.55555555555554,0)" xlink:href="#T"/></g></defs></g></svg>